<?xml version="1.0" encoding="utf-8" ?>
<svg baseProfile="tiny" height="228" version="1.2" width="386" xmlns="http://www.w3.org/2000/svg" xmlns:ev="http://www.w3.org/2001/xml-events" xmlns:xlink="http://www.w3.org/1999/xlink"><defs /><path d="M 193,1 L 192,2 L 186,2 L 185,3 L 183,3 L 182,4 L 181,4 L 180,5 L 179,5 L 178,6 L 177,6 L 176,7 L 175,7 L 174,8 L 172,8 L 171,9 L 170,9 L 165,14 L 165,15 L 162,18 L 161,18 L 159,20 L 158,20 L 152,26 L 152,27 L 149,30 L 148,30 L 146,32 L 144,32 L 143,33 L 142,33 L 141,34 L 140,34 L 135,39 L 134,39 L 133,40 L 132,40 L 131,41 L 130,41 L 124,47 L 124,48 L 118,54 L 117,54 L 113,58 L 113,59 L 111,61 L 111,63 L 110,64 L 110,65 L 109,66 L 109,67 L 108,68 L 108,69 L 107,70 L 106,70 L 103,73 L 102,73 L 94,81 L 93,81 L 92,82 L 91,82 L 90,83 L 88,83 L 86,85 L 85,85 L 82,88 L 81,88 L 80,89 L 79,89 L 78,90 L 77,90 L 76,91 L 74,91 L 73,92 L 71,92 L 70,93 L 69,93 L 68,94 L 67,94 L 66,95 L 65,95 L 64,96 L 62,96 L 61,97 L 57,97 L 56,98 L 53,98 L 52,99 L 48,99 L 47,100 L 45,100 L 44,101 L 43,101 L 41,103 L 40,103 L 39,104 L 38,104 L 37,105 L 35,105 L 34,106 L 32,106 L 30,108 L 29,108 L 24,113 L 23,113 L 22,114 L 21,114 L 19,116 L 18,116 L 16,118 L 16,120 L 15,121 L 15,122 L 14,123 L 14,124 L 13,125 L 13,126 L 12,127 L 12,128 L 9,131 L 9,132 L 8,133 L 7,133 L 6,134 L 6,135 L 5,136 L 5,138 L 4,139 L 4,141 L 3,142 L 3,148 L 2,149 L 2,154 L 3,155 L 3,161 L 4,162 L 4,163 L 5,164 L 5,165 L 14,174 L 14,175 L 15,176 L 16,176 L 19,179 L 20,179 L 21,180 L 22,180 L 24,182 L 25,182 L 27,184 L 28,184 L 30,186 L 32,186 L 33,187 L 34,187 L 35,188 L 36,188 L 37,189 L 38,189 L 39,190 L 40,190 L 42,192 L 43,192 L 44,193 L 45,193 L 46,194 L 47,194 L 48,195 L 50,195 L 51,196 L 53,196 L 54,197 L 55,197 L 56,198 L 57,198 L 58,199 L 59,199 L 60,200 L 61,200 L 62,201 L 64,201 L 65,202 L 67,202 L 68,203 L 70,203 L 71,204 L 73,204 L 74,205 L 76,205 L 77,206 L 78,206 L 79,207 L 80,207 L 81,208 L 83,208 L 84,209 L 85,209 L 86,210 L 89,210 L 90,211 L 94,211 L 95,212 L 99,212 L 100,213 L 103,213 L 104,214 L 106,214 L 107,215 L 108,215 L 109,216 L 110,216 L 111,217 L 114,217 L 115,218 L 118,218 L 119,219 L 124,219 L 125,220 L 129,220 L 130,221 L 134,221 L 135,222 L 137,222 L 138,223 L 140,223 L 141,224 L 143,224 L 144,225 L 151,225 L 152,226 L 167,226 L 168,227 L 201,227 L 202,226 L 218,226 L 219,225 L 224,225 L 225,224 L 228,224 L 229,223 L 232,223 L 233,222 L 236,222 L 237,221 L 241,221 L 242,220 L 245,220 L 246,219 L 250,219 L 251,218 L 254,218 L 255,217 L 257,217 L 258,216 L 259,216 L 260,215 L 261,215 L 262,214 L 264,214 L 265,213 L 267,213 L 268,212 L 271,212 L 272,211 L 274,211 L 275,210 L 277,210 L 278,209 L 279,209 L 280,208 L 281,208 L 282,207 L 283,207 L 284,206 L 286,206 L 287,205 L 288,205 L 289,204 L 291,204 L 292,203 L 295,203 L 296,202 L 299,202 L 300,201 L 302,201 L 303,200 L 305,200 L 306,199 L 308,199 L 309,198 L 310,198 L 311,197 L 313,197 L 314,196 L 317,196 L 318,195 L 320,195 L 321,194 L 324,194 L 325,193 L 327,193 L 328,192 L 330,192 L 331,191 L 333,191 L 334,190 L 335,190 L 336,189 L 338,189 L 339,188 L 342,188 L 343,187 L 345,187 L 346,186 L 348,186 L 349,185 L 352,185 L 353,184 L 354,184 L 355,183 L 356,183 L 358,181 L 359,181 L 360,180 L 362,180 L 363,179 L 364,179 L 365,178 L 367,178 L 368,177 L 369,177 L 370,176 L 371,176 L 375,172 L 376,172 L 377,171 L 378,171 L 380,169 L 381,169 L 382,168 L 382,167 L 383,166 L 383,164 L 384,163 L 384,160 L 385,159 L 385,136 L 384,135 L 384,132 L 383,131 L 383,129 L 382,128 L 382,127 L 381,126 L 381,125 L 377,121 L 377,120 L 375,118 L 375,117 L 374,116 L 374,114 L 373,113 L 373,112 L 372,111 L 372,107 L 371,106 L 371,100 L 370,99 L 370,96 L 369,95 L 369,91 L 368,90 L 368,86 L 367,85 L 367,84 L 366,83 L 366,81 L 365,80 L 365,79 L 364,78 L 364,77 L 363,76 L 363,73 L 362,72 L 362,68 L 361,67 L 361,62 L 360,61 L 360,53 L 359,52 L 359,43 L 358,42 L 358,35 L 357,34 L 357,29 L 356,28 L 356,26 L 355,25 L 355,24 L 354,23 L 354,22 L 353,21 L 353,20 L 352,20 L 350,18 L 349,18 L 346,15 L 345,15 L 341,11 L 340,11 L 339,10 L 323,10 L 322,11 L 319,11 L 318,12 L 315,12 L 314,13 L 312,13 L 311,14 L 308,14 L 307,15 L 305,15 L 304,16 L 300,16 L 299,17 L 292,17 L 291,16 L 284,16 L 283,15 L 281,15 L 280,14 L 278,14 L 277,13 L 276,13 L 275,12 L 273,12 L 272,11 L 270,11 L 269,10 L 266,10 L 265,9 L 261,9 L 260,8 L 256,8 L 255,7 L 252,7 L 251,6 L 249,6 L 248,5 L 246,5 L 245,4 L 243,4 L 242,3 L 238,3 L 237,2 L 231,2 L 230,1 Z" fill="black" stroke="none" /></svg>