<?xml version="1.0" encoding="utf-8" ?>
<svg baseProfile="tiny" height="238" version="1.2" width="331" xmlns="http://www.w3.org/2000/svg" xmlns:ev="http://www.w3.org/2001/xml-events" xmlns:xlink="http://www.w3.org/1999/xlink"><defs /><path d="M 241,1 L 240,2 L 229,2 L 228,3 L 225,3 L 224,4 L 223,4 L 222,5 L 220,5 L 219,6 L 218,6 L 217,7 L 216,7 L 215,8 L 213,8 L 212,9 L 211,9 L 210,10 L 209,10 L 208,11 L 207,11 L 206,12 L 205,12 L 196,21 L 195,21 L 192,24 L 191,24 L 189,26 L 188,26 L 186,28 L 185,28 L 184,29 L 183,29 L 176,36 L 175,36 L 171,40 L 170,40 L 169,41 L 168,41 L 166,43 L 165,43 L 164,44 L 163,44 L 161,46 L 160,46 L 158,48 L 157,48 L 155,50 L 154,50 L 153,51 L 152,51 L 151,52 L 149,52 L 148,53 L 147,53 L 143,57 L 142,57 L 140,59 L 139,59 L 137,61 L 135,61 L 133,63 L 132,63 L 129,66 L 128,66 L 127,67 L 126,67 L 125,68 L 123,68 L 122,69 L 120,69 L 119,70 L 118,70 L 116,72 L 115,72 L 113,74 L 112,74 L 111,75 L 109,75 L 108,76 L 106,76 L 105,77 L 101,77 L 100,78 L 98,78 L 97,79 L 95,79 L 94,80 L 93,80 L 92,81 L 91,81 L 90,82 L 89,82 L 88,83 L 86,83 L 85,84 L 81,84 L 80,85 L 76,85 L 75,86 L 70,86 L 69,87 L 66,87 L 65,88 L 64,88 L 63,89 L 62,89 L 61,90 L 60,90 L 58,92 L 56,92 L 55,93 L 53,93 L 52,94 L 49,94 L 48,95 L 46,95 L 45,96 L 43,96 L 42,97 L 41,97 L 37,101 L 36,101 L 34,103 L 33,103 L 32,104 L 31,104 L 29,106 L 28,106 L 27,107 L 27,108 L 24,111 L 24,112 L 22,114 L 22,115 L 20,117 L 19,117 L 13,123 L 13,124 L 12,125 L 12,127 L 11,128 L 11,130 L 10,131 L 10,132 L 8,134 L 8,135 L 5,138 L 5,139 L 4,140 L 4,143 L 5,144 L 5,148 L 8,151 L 10,151 L 11,152 L 12,152 L 13,153 L 15,153 L 16,154 L 24,154 L 25,155 L 34,155 L 35,156 L 38,156 L 39,157 L 41,157 L 42,158 L 44,158 L 45,159 L 47,159 L 48,160 L 50,160 L 51,161 L 54,161 L 55,162 L 56,162 L 58,164 L 59,164 L 65,170 L 66,170 L 69,173 L 69,174 L 70,175 L 70,176 L 71,177 L 71,179 L 72,180 L 72,181 L 73,182 L 73,184 L 74,185 L 74,186 L 75,187 L 75,188 L 77,190 L 77,191 L 79,193 L 79,194 L 81,196 L 81,198 L 82,199 L 82,200 L 83,201 L 83,203 L 84,204 L 84,206 L 85,207 L 85,209 L 87,211 L 87,212 L 93,218 L 93,219 L 95,221 L 95,222 L 96,223 L 96,224 L 98,226 L 98,227 L 99,228 L 99,229 L 101,231 L 102,231 L 103,232 L 104,232 L 106,234 L 107,234 L 108,235 L 111,235 L 112,236 L 126,236 L 127,237 L 136,237 L 137,236 L 164,236 L 165,235 L 175,235 L 176,234 L 183,234 L 184,233 L 186,233 L 187,232 L 189,232 L 190,231 L 192,231 L 193,230 L 196,230 L 197,229 L 198,229 L 199,228 L 200,228 L 201,227 L 203,227 L 205,225 L 206,225 L 207,224 L 208,224 L 209,223 L 210,223 L 211,222 L 212,222 L 213,221 L 214,221 L 216,219 L 217,219 L 224,212 L 224,211 L 227,208 L 227,207 L 230,204 L 231,204 L 234,201 L 234,200 L 236,198 L 236,197 L 237,196 L 237,195 L 238,194 L 238,193 L 246,185 L 246,184 L 252,178 L 253,178 L 254,177 L 256,177 L 257,176 L 260,176 L 261,175 L 264,175 L 265,174 L 270,174 L 271,173 L 277,173 L 278,172 L 279,173 L 288,173 L 289,174 L 290,173 L 293,173 L 294,172 L 296,172 L 297,171 L 300,171 L 301,170 L 303,170 L 304,169 L 305,169 L 306,168 L 307,168 L 309,166 L 310,166 L 312,164 L 313,164 L 315,162 L 316,162 L 317,161 L 317,160 L 320,157 L 320,156 L 321,155 L 321,154 L 323,152 L 323,151 L 325,149 L 325,147 L 326,146 L 326,143 L 327,142 L 327,121 L 326,120 L 326,118 L 325,117 L 325,114 L 324,113 L 324,108 L 323,107 L 323,102 L 322,101 L 322,92 L 323,91 L 323,75 L 324,74 L 324,68 L 325,67 L 325,53 L 326,52 L 326,41 L 325,40 L 325,37 L 324,36 L 324,34 L 323,33 L 323,32 L 322,31 L 322,30 L 321,29 L 320,29 L 319,28 L 318,28 L 317,27 L 316,27 L 315,26 L 312,26 L 311,25 L 305,25 L 304,24 L 301,24 L 300,23 L 299,23 L 296,20 L 295,20 L 294,19 L 293,19 L 292,18 L 291,18 L 290,17 L 289,17 L 287,15 L 286,15 L 283,12 L 282,12 L 280,10 L 279,10 L 278,9 L 276,9 L 275,8 L 273,8 L 272,7 L 271,7 L 270,6 L 269,6 L 268,5 L 267,5 L 266,4 L 263,4 L 262,3 L 258,3 L 257,2 L 245,2 L 244,1 Z" fill="black" stroke="none" /></svg>