<?xml version="1.0" encoding="utf-8" ?>
<svg baseProfile="tiny" height="239" version="1.2" width="381" xmlns="http://www.w3.org/2000/svg" xmlns:ev="http://www.w3.org/2001/xml-events" xmlns:xlink="http://www.w3.org/1999/xlink"><defs /><path d="M 220,8 L 219,9 L 211,9 L 210,10 L 203,10 L 202,11 L 197,11 L 196,12 L 194,12 L 193,13 L 191,13 L 190,14 L 188,14 L 187,15 L 185,15 L 184,16 L 182,16 L 181,17 L 180,17 L 177,20 L 176,20 L 171,25 L 170,25 L 169,26 L 168,26 L 166,28 L 166,29 L 165,30 L 165,31 L 164,32 L 164,34 L 163,35 L 163,38 L 161,40 L 161,41 L 157,45 L 156,45 L 154,47 L 154,48 L 152,50 L 152,51 L 151,52 L 151,54 L 150,55 L 150,56 L 145,61 L 144,61 L 142,63 L 141,63 L 139,65 L 139,66 L 136,69 L 136,70 L 131,75 L 130,75 L 129,76 L 128,76 L 118,86 L 117,86 L 116,87 L 115,87 L 113,89 L 112,89 L 110,91 L 110,92 L 109,93 L 108,93 L 104,97 L 103,97 L 101,99 L 100,99 L 97,102 L 96,102 L 93,105 L 92,105 L 89,108 L 88,108 L 87,109 L 85,109 L 84,110 L 83,110 L 82,111 L 81,111 L 80,112 L 78,112 L 77,113 L 76,113 L 75,114 L 74,114 L 73,115 L 72,115 L 70,117 L 69,117 L 68,118 L 67,118 L 66,119 L 64,119 L 63,120 L 60,120 L 59,121 L 58,121 L 57,122 L 56,122 L 53,125 L 52,125 L 51,126 L 50,126 L 49,127 L 48,127 L 47,128 L 44,128 L 43,129 L 42,129 L 41,130 L 39,130 L 38,131 L 37,131 L 35,133 L 34,133 L 33,134 L 32,134 L 30,136 L 29,136 L 28,137 L 27,137 L 25,139 L 24,139 L 21,142 L 20,142 L 15,147 L 15,148 L 13,150 L 13,151 L 4,160 L 4,162 L 3,163 L 3,164 L 2,165 L 2,172 L 1,173 L 1,185 L 2,186 L 2,193 L 3,194 L 3,195 L 4,196 L 4,197 L 5,198 L 5,199 L 8,202 L 9,202 L 15,208 L 15,209 L 16,209 L 18,211 L 19,211 L 20,212 L 21,212 L 22,213 L 24,213 L 25,214 L 26,214 L 27,215 L 28,215 L 30,217 L 31,217 L 33,219 L 35,219 L 36,220 L 39,220 L 40,221 L 43,221 L 44,222 L 47,222 L 48,223 L 50,223 L 51,224 L 52,224 L 53,225 L 54,225 L 55,226 L 56,226 L 57,227 L 58,227 L 59,228 L 61,228 L 62,229 L 66,229 L 67,230 L 72,230 L 73,231 L 78,231 L 79,232 L 83,232 L 84,233 L 87,233 L 88,234 L 91,234 L 92,235 L 97,235 L 98,236 L 110,236 L 111,237 L 143,237 L 144,236 L 158,236 L 159,235 L 168,235 L 169,234 L 173,234 L 174,233 L 179,233 L 180,232 L 185,232 L 186,231 L 194,231 L 195,230 L 201,230 L 202,229 L 208,229 L 209,228 L 213,228 L 214,227 L 215,227 L 216,226 L 218,226 L 219,225 L 220,225 L 221,224 L 223,224 L 224,223 L 227,223 L 228,222 L 231,222 L 232,221 L 235,221 L 236,220 L 238,220 L 239,219 L 241,219 L 242,218 L 243,218 L 244,217 L 245,217 L 246,216 L 247,216 L 248,215 L 250,215 L 251,214 L 253,214 L 254,213 L 256,213 L 257,212 L 259,212 L 260,211 L 261,211 L 262,210 L 263,210 L 264,209 L 266,209 L 267,208 L 268,208 L 269,207 L 271,207 L 272,206 L 273,206 L 274,205 L 277,205 L 278,204 L 280,204 L 281,203 L 282,203 L 283,202 L 284,202 L 286,200 L 287,200 L 288,199 L 289,199 L 290,198 L 291,198 L 292,197 L 295,197 L 296,196 L 301,196 L 302,195 L 306,195 L 307,194 L 309,194 L 310,193 L 311,193 L 312,192 L 313,192 L 314,191 L 315,191 L 316,190 L 318,190 L 319,189 L 321,189 L 322,188 L 324,188 L 325,187 L 328,187 L 329,186 L 331,186 L 332,185 L 334,185 L 335,184 L 336,184 L 338,182 L 339,182 L 340,181 L 341,181 L 342,180 L 344,180 L 345,179 L 348,179 L 349,178 L 351,178 L 352,177 L 354,177 L 355,176 L 357,176 L 358,175 L 359,175 L 361,173 L 362,173 L 363,172 L 364,172 L 367,169 L 368,169 L 373,164 L 374,164 L 377,161 L 377,160 L 378,159 L 378,158 L 379,157 L 379,150 L 380,149 L 380,134 L 379,133 L 379,123 L 378,122 L 378,121 L 377,120 L 377,119 L 375,117 L 375,116 L 372,113 L 372,112 L 370,110 L 370,109 L 369,108 L 369,106 L 368,105 L 368,102 L 367,101 L 367,95 L 366,94 L 366,89 L 365,88 L 365,85 L 364,84 L 364,82 L 363,81 L 363,80 L 362,79 L 362,78 L 360,76 L 360,75 L 358,73 L 358,72 L 356,70 L 356,68 L 355,67 L 355,66 L 354,65 L 354,61 L 353,60 L 353,54 L 352,53 L 352,48 L 351,47 L 351,45 L 350,44 L 350,43 L 349,42 L 349,40 L 347,38 L 347,37 L 343,33 L 343,32 L 342,31 L 342,30 L 341,29 L 341,27 L 340,26 L 340,24 L 339,23 L 339,21 L 338,20 L 338,19 L 333,14 L 332,14 L 331,13 L 330,13 L 329,12 L 328,12 L 327,11 L 326,11 L 325,10 L 323,10 L 322,9 L 320,9 L 319,8 L 305,8 L 304,9 L 297,9 L 296,10 L 291,10 L 290,11 L 288,11 L 287,12 L 286,12 L 285,13 L 284,13 L 284,14 L 282,16 L 282,17 L 280,19 L 280,20 L 278,22 L 272,22 L 271,23 L 264,23 L 263,22 L 262,22 L 261,21 L 261,19 L 260,18 L 260,15 L 259,14 L 259,13 L 258,12 L 256,12 L 255,11 L 252,11 L 251,10 L 247,10 L 246,9 L 241,9 L 240,8 Z" fill="black" stroke="none" /></svg>