<?xml version="1.0" encoding="utf-8" ?>
<svg baseProfile="tiny" height="238" version="1.2" width="381" xmlns="http://www.w3.org/2000/svg" xmlns:ev="http://www.w3.org/2001/xml-events" xmlns:xlink="http://www.w3.org/1999/xlink"><defs /><path d="M 223,6 L 222,7 L 218,7 L 217,8 L 212,8 L 211,9 L 204,9 L 203,10 L 197,10 L 196,11 L 193,11 L 192,12 L 190,12 L 189,13 L 187,13 L 186,14 L 184,14 L 183,15 L 182,15 L 181,16 L 180,16 L 179,17 L 178,17 L 176,19 L 175,19 L 173,21 L 172,21 L 170,23 L 169,23 L 166,26 L 166,27 L 165,28 L 165,29 L 164,30 L 164,31 L 163,32 L 163,34 L 162,35 L 162,36 L 161,37 L 161,38 L 152,47 L 152,48 L 151,49 L 151,50 L 150,51 L 150,52 L 149,53 L 149,55 L 146,58 L 145,58 L 143,60 L 142,60 L 141,61 L 140,61 L 138,63 L 138,64 L 135,67 L 135,68 L 132,71 L 131,71 L 128,74 L 127,74 L 124,77 L 124,78 L 122,80 L 122,81 L 120,83 L 119,83 L 118,84 L 117,84 L 116,85 L 115,85 L 114,86 L 113,86 L 104,95 L 103,95 L 102,96 L 101,96 L 98,99 L 97,99 L 94,102 L 93,102 L 92,103 L 91,103 L 90,104 L 88,104 L 86,106 L 85,106 L 81,110 L 80,110 L 79,111 L 78,111 L 77,112 L 76,112 L 75,113 L 73,113 L 71,115 L 70,115 L 68,117 L 67,117 L 66,118 L 65,118 L 64,119 L 61,119 L 60,120 L 59,120 L 58,121 L 56,121 L 53,124 L 52,124 L 50,126 L 49,126 L 48,127 L 46,127 L 45,128 L 43,128 L 42,129 L 40,129 L 39,130 L 38,130 L 37,131 L 36,131 L 35,132 L 34,132 L 33,133 L 32,133 L 30,135 L 29,135 L 27,137 L 26,137 L 24,139 L 23,139 L 22,140 L 21,140 L 15,146 L 15,147 L 13,149 L 13,150 L 8,155 L 7,155 L 4,158 L 4,159 L 3,160 L 3,162 L 2,163 L 2,168 L 1,169 L 1,189 L 2,190 L 2,194 L 3,195 L 3,197 L 4,198 L 4,199 L 7,202 L 8,202 L 17,211 L 18,211 L 19,212 L 21,212 L 22,213 L 23,213 L 24,214 L 25,214 L 26,215 L 27,215 L 29,217 L 30,217 L 31,218 L 32,218 L 33,219 L 34,219 L 35,220 L 38,220 L 39,221 L 42,221 L 43,222 L 45,222 L 46,223 L 48,223 L 49,224 L 51,224 L 52,225 L 53,225 L 54,226 L 55,226 L 56,227 L 57,227 L 58,228 L 61,228 L 62,229 L 66,229 L 67,230 L 71,230 L 72,231 L 76,231 L 77,232 L 81,232 L 82,233 L 85,233 L 86,234 L 89,234 L 90,235 L 96,235 L 97,236 L 112,236 L 113,237 L 144,237 L 145,236 L 163,236 L 164,235 L 173,235 L 174,234 L 178,234 L 179,233 L 182,233 L 183,232 L 189,232 L 190,231 L 197,231 L 198,230 L 204,230 L 205,229 L 211,229 L 212,228 L 215,228 L 216,227 L 218,227 L 219,226 L 221,226 L 222,225 L 224,225 L 225,224 L 227,224 L 228,223 L 230,223 L 231,222 L 234,222 L 235,221 L 238,221 L 239,220 L 241,220 L 242,219 L 244,219 L 245,218 L 246,218 L 248,216 L 250,216 L 251,215 L 252,215 L 253,214 L 255,214 L 256,213 L 258,213 L 259,212 L 261,212 L 262,211 L 264,211 L 265,210 L 267,210 L 268,209 L 270,209 L 271,208 L 272,208 L 273,207 L 274,207 L 275,206 L 277,206 L 278,205 L 280,205 L 281,204 L 282,204 L 283,203 L 284,203 L 285,202 L 286,202 L 287,201 L 288,201 L 289,200 L 290,200 L 291,199 L 292,199 L 293,198 L 295,198 L 296,197 L 299,197 L 300,196 L 304,196 L 305,195 L 308,195 L 309,194 L 312,194 L 313,193 L 315,193 L 316,192 L 317,192 L 318,191 L 319,191 L 320,190 L 322,190 L 323,189 L 324,189 L 325,188 L 328,188 L 329,187 L 331,187 L 332,186 L 334,186 L 335,185 L 336,185 L 337,184 L 338,184 L 339,183 L 340,183 L 342,181 L 343,181 L 344,180 L 346,180 L 347,179 L 350,179 L 351,178 L 354,178 L 355,177 L 357,177 L 358,176 L 360,176 L 361,175 L 362,175 L 365,172 L 366,172 L 369,169 L 370,169 L 373,166 L 374,166 L 376,164 L 376,163 L 378,161 L 378,160 L 379,159 L 379,156 L 380,155 L 380,124 L 379,123 L 379,120 L 378,119 L 378,117 L 377,116 L 377,114 L 375,112 L 375,111 L 372,108 L 372,107 L 370,105 L 370,103 L 369,102 L 369,101 L 368,100 L 368,97 L 367,96 L 367,89 L 366,88 L 366,84 L 365,83 L 365,81 L 364,80 L 364,78 L 363,77 L 363,76 L 362,75 L 362,74 L 361,73 L 361,72 L 357,68 L 357,67 L 356,66 L 356,65 L 355,64 L 355,61 L 354,60 L 354,54 L 353,53 L 353,47 L 352,46 L 352,42 L 351,41 L 351,38 L 350,37 L 350,36 L 343,29 L 343,28 L 342,27 L 342,26 L 341,25 L 341,23 L 340,22 L 340,21 L 339,20 L 339,19 L 333,13 L 332,13 L 331,12 L 330,12 L 329,11 L 328,11 L 327,10 L 326,10 L 325,9 L 323,9 L 322,8 L 320,8 L 319,7 L 304,7 L 303,8 L 297,8 L 296,9 L 292,9 L 291,10 L 288,10 L 287,11 L 286,11 L 285,12 L 283,12 L 282,13 L 281,13 L 279,15 L 278,15 L 277,14 L 265,14 L 264,13 L 263,13 L 262,12 L 261,12 L 260,11 L 258,11 L 257,10 L 255,10 L 254,9 L 251,9 L 250,8 L 246,8 L 245,7 L 241,7 L 240,6 Z" fill="black" stroke="none" /></svg>