<?xml version="1.0" encoding="utf-8" ?>
<svg baseProfile="tiny" height="228" version="1.2" width="385" xmlns="http://www.w3.org/2000/svg" xmlns:ev="http://www.w3.org/2001/xml-events" xmlns:xlink="http://www.w3.org/1999/xlink"><defs /><path d="M 188,1 L 187,2 L 183,2 L 182,3 L 181,3 L 180,4 L 179,4 L 178,5 L 177,5 L 176,6 L 175,6 L 174,7 L 173,7 L 172,8 L 170,8 L 168,10 L 167,10 L 166,11 L 166,12 L 160,18 L 159,18 L 157,20 L 156,20 L 153,23 L 153,24 L 146,31 L 145,31 L 144,32 L 142,32 L 141,33 L 140,33 L 138,35 L 137,35 L 132,40 L 131,40 L 130,41 L 129,41 L 128,42 L 127,42 L 124,45 L 124,46 L 117,53 L 116,53 L 113,56 L 113,57 L 111,59 L 111,60 L 110,61 L 110,63 L 109,64 L 109,65 L 108,66 L 108,67 L 103,72 L 102,72 L 94,80 L 93,80 L 92,81 L 91,81 L 90,82 L 89,82 L 88,83 L 87,83 L 86,84 L 85,84 L 81,88 L 80,88 L 79,89 L 78,89 L 77,90 L 75,90 L 74,91 L 72,91 L 71,92 L 70,92 L 69,93 L 68,93 L 67,94 L 66,94 L 65,95 L 64,95 L 63,96 L 60,96 L 59,97 L 55,97 L 54,98 L 50,98 L 49,99 L 46,99 L 45,100 L 44,100 L 43,101 L 42,101 L 41,102 L 40,102 L 39,103 L 38,103 L 37,104 L 36,104 L 35,105 L 33,105 L 32,106 L 31,106 L 30,107 L 29,107 L 24,112 L 23,112 L 21,114 L 20,114 L 19,115 L 18,115 L 15,118 L 15,119 L 14,120 L 14,122 L 13,123 L 13,124 L 12,125 L 12,126 L 11,127 L 11,128 L 4,135 L 4,137 L 3,138 L 3,140 L 2,141 L 2,149 L 1,150 L 1,151 L 2,152 L 2,160 L 3,161 L 3,163 L 4,164 L 4,165 L 14,175 L 14,176 L 15,176 L 18,179 L 19,179 L 20,180 L 21,180 L 23,182 L 24,182 L 26,184 L 27,184 L 29,186 L 31,186 L 32,187 L 33,187 L 34,188 L 36,188 L 38,190 L 39,190 L 41,192 L 42,192 L 43,193 L 44,193 L 45,194 L 47,194 L 48,195 L 50,195 L 51,196 L 52,196 L 53,197 L 54,197 L 55,198 L 56,198 L 57,199 L 58,199 L 59,200 L 60,200 L 61,201 L 63,201 L 64,202 L 66,202 L 67,203 L 69,203 L 70,204 L 72,204 L 73,205 L 75,205 L 76,206 L 78,206 L 79,207 L 80,207 L 81,208 L 82,208 L 83,209 L 85,209 L 86,210 L 88,210 L 89,211 L 94,211 L 95,212 L 98,212 L 99,213 L 102,213 L 103,214 L 105,214 L 106,215 L 107,215 L 108,216 L 110,216 L 111,217 L 113,217 L 114,218 L 117,218 L 118,219 L 123,219 L 124,220 L 128,220 L 129,221 L 133,221 L 134,222 L 136,222 L 137,223 L 139,223 L 140,224 L 142,224 L 143,225 L 150,225 L 151,226 L 166,226 L 167,227 L 200,227 L 201,226 L 216,226 L 217,225 L 222,225 L 223,224 L 226,224 L 227,223 L 230,223 L 231,222 L 234,222 L 235,221 L 239,221 L 240,220 L 244,220 L 245,219 L 248,219 L 249,218 L 252,218 L 253,217 L 255,217 L 256,216 L 257,216 L 258,215 L 259,215 L 260,214 L 262,214 L 263,213 L 265,213 L 266,212 L 269,212 L 270,211 L 272,211 L 273,210 L 275,210 L 276,209 L 277,209 L 278,208 L 280,208 L 281,207 L 282,207 L 283,206 L 284,206 L 285,205 L 287,205 L 288,204 L 290,204 L 291,203 L 293,203 L 294,202 L 297,202 L 298,201 L 300,201 L 301,200 L 303,200 L 304,199 L 306,199 L 307,198 L 309,198 L 310,197 L 312,197 L 313,196 L 315,196 L 316,195 L 319,195 L 320,194 L 323,194 L 324,193 L 326,193 L 327,192 L 329,192 L 330,191 L 331,191 L 332,190 L 334,190 L 335,189 L 337,189 L 338,188 L 340,188 L 341,187 L 344,187 L 345,186 L 347,186 L 348,185 L 351,185 L 352,184 L 353,184 L 354,183 L 355,183 L 357,181 L 358,181 L 359,180 L 360,180 L 361,179 L 363,179 L 364,178 L 366,178 L 367,177 L 368,177 L 370,175 L 371,175 L 374,172 L 375,172 L 376,171 L 377,171 L 379,169 L 380,169 L 380,168 L 382,166 L 382,164 L 383,163 L 383,159 L 384,158 L 384,137 L 383,136 L 383,131 L 382,130 L 382,129 L 381,128 L 381,126 L 379,124 L 379,123 L 376,120 L 376,119 L 374,117 L 374,116 L 373,115 L 373,114 L 372,113 L 372,111 L 371,110 L 371,106 L 370,105 L 370,99 L 369,98 L 369,94 L 368,93 L 368,87 L 367,86 L 367,84 L 366,83 L 366,81 L 365,80 L 365,79 L 364,78 L 364,77 L 363,76 L 363,74 L 362,73 L 362,70 L 361,69 L 361,65 L 360,64 L 360,60 L 359,59 L 359,52 L 358,51 L 358,41 L 357,40 L 357,32 L 356,31 L 356,27 L 355,26 L 355,24 L 354,23 L 354,22 L 353,21 L 353,20 L 351,18 L 350,18 L 349,17 L 348,17 L 343,12 L 342,12 L 340,10 L 338,10 L 337,9 L 322,9 L 321,10 L 317,10 L 316,11 L 313,11 L 312,12 L 310,12 L 309,13 L 307,13 L 306,14 L 303,14 L 302,15 L 299,15 L 298,16 L 291,16 L 290,15 L 282,15 L 281,14 L 279,14 L 278,13 L 277,13 L 276,12 L 275,12 L 274,11 L 272,11 L 271,10 L 268,10 L 267,9 L 264,9 L 263,8 L 259,8 L 258,7 L 254,7 L 253,6 L 251,6 L 250,5 L 248,5 L 247,4 L 245,4 L 244,3 L 241,3 L 240,2 L 234,2 L 233,1 Z" fill="black" stroke="none" /></svg>