<?xml version="1.0" encoding="utf-8" ?>
<svg baseProfile="tiny" height="228" version="1.2" width="386" xmlns="http://www.w3.org/2000/svg" xmlns:ev="http://www.w3.org/2001/xml-events" xmlns:xlink="http://www.w3.org/1999/xlink"><defs /><path d="M 192,1 L 191,2 L 185,2 L 184,3 L 183,3 L 182,4 L 181,4 L 180,5 L 179,5 L 178,6 L 177,6 L 176,7 L 174,7 L 173,8 L 172,8 L 171,9 L 170,9 L 158,21 L 157,21 L 151,27 L 151,28 L 149,30 L 148,30 L 147,31 L 146,31 L 145,32 L 144,32 L 143,33 L 142,33 L 141,34 L 140,34 L 135,39 L 134,39 L 133,40 L 132,40 L 131,41 L 130,41 L 128,43 L 127,43 L 126,44 L 126,45 L 124,47 L 124,48 L 121,51 L 121,52 L 119,54 L 118,54 L 116,56 L 115,56 L 113,58 L 113,59 L 111,61 L 111,63 L 110,64 L 110,65 L 109,66 L 109,67 L 108,68 L 108,69 L 105,72 L 104,72 L 103,73 L 102,73 L 94,81 L 93,81 L 91,83 L 89,83 L 88,84 L 87,84 L 84,87 L 83,87 L 82,88 L 81,88 L 80,89 L 79,89 L 78,90 L 76,90 L 75,91 L 73,91 L 72,92 L 71,92 L 70,93 L 69,93 L 68,94 L 67,94 L 66,95 L 65,95 L 64,96 L 61,96 L 60,97 L 56,97 L 55,98 L 51,98 L 50,99 L 47,99 L 46,100 L 45,100 L 44,101 L 43,101 L 42,102 L 41,102 L 40,103 L 39,103 L 38,104 L 37,104 L 36,105 L 34,105 L 33,106 L 32,106 L 31,107 L 30,107 L 29,108 L 28,108 L 23,113 L 22,113 L 20,115 L 19,115 L 16,118 L 16,119 L 15,120 L 15,121 L 14,122 L 14,123 L 13,124 L 13,125 L 12,126 L 12,127 L 11,128 L 11,129 L 5,135 L 5,136 L 4,137 L 4,139 L 3,140 L 3,143 L 2,144 L 2,159 L 3,160 L 3,162 L 4,163 L 4,164 L 6,166 L 6,167 L 8,169 L 9,169 L 12,172 L 12,173 L 17,178 L 18,178 L 20,180 L 21,180 L 22,181 L 23,181 L 25,183 L 26,183 L 28,185 L 29,185 L 30,186 L 31,186 L 32,187 L 34,187 L 35,188 L 36,188 L 37,189 L 38,189 L 40,191 L 41,191 L 42,192 L 43,192 L 44,193 L 45,193 L 46,194 L 47,194 L 48,195 L 50,195 L 51,196 L 53,196 L 54,197 L 55,197 L 56,198 L 57,198 L 58,199 L 59,199 L 60,200 L 61,200 L 62,201 L 64,201 L 65,202 L 67,202 L 68,203 L 70,203 L 71,204 L 73,204 L 74,205 L 76,205 L 77,206 L 78,206 L 79,207 L 80,207 L 81,208 L 82,208 L 83,209 L 85,209 L 86,210 L 89,210 L 90,211 L 94,211 L 95,212 L 98,212 L 99,213 L 102,213 L 103,214 L 105,214 L 106,215 L 108,215 L 109,216 L 110,216 L 111,217 L 114,217 L 115,218 L 118,218 L 119,219 L 123,219 L 124,220 L 128,220 L 129,221 L 133,221 L 134,222 L 136,222 L 137,223 L 139,223 L 140,224 L 142,224 L 143,225 L 151,225 L 152,226 L 169,226 L 170,227 L 196,227 L 197,226 L 217,226 L 218,225 L 224,225 L 225,224 L 228,224 L 229,223 L 232,223 L 233,222 L 236,222 L 237,221 L 241,221 L 242,220 L 245,220 L 246,219 L 249,219 L 250,218 L 253,218 L 254,217 L 256,217 L 257,216 L 259,216 L 260,215 L 261,215 L 262,214 L 263,214 L 264,213 L 267,213 L 268,212 L 270,212 L 271,211 L 274,211 L 275,210 L 277,210 L 278,209 L 280,209 L 281,208 L 282,208 L 283,207 L 284,207 L 285,206 L 286,206 L 287,205 L 289,205 L 290,204 L 292,204 L 293,203 L 295,203 L 296,202 L 299,202 L 300,201 L 302,201 L 303,200 L 305,200 L 306,199 L 308,199 L 309,198 L 311,198 L 312,197 L 314,197 L 315,196 L 317,196 L 318,195 L 321,195 L 322,194 L 325,194 L 326,193 L 328,193 L 329,192 L 331,192 L 332,191 L 333,191 L 334,190 L 336,190 L 337,189 L 339,189 L 340,188 L 342,188 L 343,187 L 345,187 L 346,186 L 348,186 L 349,185 L 351,185 L 352,184 L 354,184 L 355,183 L 356,183 L 358,181 L 359,181 L 360,180 L 361,180 L 362,179 L 364,179 L 365,178 L 367,178 L 368,177 L 369,177 L 370,176 L 371,176 L 374,173 L 375,173 L 377,171 L 378,171 L 379,170 L 380,170 L 382,168 L 382,167 L 383,166 L 383,164 L 384,163 L 384,160 L 385,159 L 385,138 L 384,137 L 384,132 L 383,131 L 383,130 L 382,129 L 382,128 L 381,127 L 381,126 L 377,122 L 377,121 L 375,119 L 375,118 L 374,117 L 374,115 L 373,114 L 373,112 L 372,111 L 372,107 L 371,106 L 371,101 L 370,100 L 370,96 L 369,95 L 369,92 L 368,91 L 368,86 L 367,85 L 367,83 L 366,82 L 366,81 L 365,80 L 365,79 L 364,78 L 364,77 L 363,76 L 363,73 L 362,72 L 362,67 L 361,66 L 361,61 L 360,60 L 360,52 L 359,51 L 359,40 L 358,39 L 358,30 L 357,29 L 357,26 L 356,25 L 356,23 L 355,22 L 355,21 L 351,17 L 350,17 L 348,15 L 347,15 L 343,11 L 342,11 L 341,10 L 340,10 L 339,9 L 323,9 L 322,10 L 318,10 L 317,11 L 315,11 L 314,12 L 312,12 L 311,13 L 309,13 L 308,14 L 306,14 L 305,15 L 302,15 L 301,16 L 298,16 L 297,17 L 295,17 L 294,16 L 286,16 L 285,15 L 281,15 L 280,14 L 278,14 L 277,13 L 276,13 L 275,12 L 274,12 L 273,11 L 271,11 L 270,10 L 267,10 L 266,9 L 263,9 L 262,8 L 258,8 L 257,7 L 254,7 L 253,6 L 250,6 L 249,5 L 248,5 L 247,4 L 245,4 L 244,3 L 240,3 L 239,2 L 233,2 L 232,1 Z" fill="black" stroke="none" /></svg>