<?xml version="1.0" encoding="utf-8" ?>
<svg baseProfile="tiny" height="238" version="1.2" width="381" xmlns="http://www.w3.org/2000/svg" xmlns:ev="http://www.w3.org/2001/xml-events" xmlns:xlink="http://www.w3.org/1999/xlink"><defs /><path d="M 228,6 L 227,7 L 220,7 L 219,8 L 214,8 L 213,9 L 207,9 L 206,10 L 200,10 L 199,11 L 195,11 L 194,12 L 192,12 L 191,13 L 189,13 L 188,14 L 185,14 L 184,15 L 183,15 L 182,16 L 180,16 L 178,18 L 177,18 L 176,19 L 175,19 L 171,23 L 170,23 L 165,28 L 165,29 L 164,30 L 164,32 L 163,33 L 163,34 L 162,35 L 162,37 L 160,39 L 160,40 L 157,43 L 156,43 L 153,46 L 153,47 L 152,48 L 152,49 L 151,50 L 151,51 L 150,52 L 150,53 L 149,54 L 149,55 L 145,59 L 144,59 L 142,61 L 141,61 L 137,65 L 137,66 L 129,74 L 128,74 L 122,80 L 122,81 L 120,83 L 119,83 L 117,85 L 115,85 L 114,86 L 113,86 L 104,95 L 103,95 L 102,96 L 101,96 L 97,100 L 96,100 L 94,102 L 93,102 L 92,103 L 91,103 L 90,104 L 89,104 L 88,105 L 87,105 L 84,108 L 83,108 L 81,110 L 80,110 L 79,111 L 78,111 L 77,112 L 76,112 L 75,113 L 73,113 L 71,115 L 70,115 L 68,117 L 67,117 L 66,118 L 64,118 L 63,119 L 61,119 L 60,120 L 59,120 L 58,121 L 57,121 L 56,122 L 55,122 L 52,125 L 51,125 L 50,126 L 49,126 L 48,127 L 46,127 L 45,128 L 43,128 L 42,129 L 41,129 L 40,130 L 38,130 L 36,132 L 35,132 L 34,133 L 33,133 L 32,134 L 31,134 L 29,136 L 28,136 L 26,138 L 25,138 L 23,140 L 22,140 L 19,143 L 18,143 L 15,146 L 15,147 L 14,148 L 14,149 L 12,151 L 12,152 L 8,156 L 7,156 L 5,158 L 5,159 L 4,160 L 4,161 L 3,162 L 3,164 L 2,165 L 2,172 L 1,173 L 1,186 L 2,187 L 2,193 L 3,194 L 3,195 L 4,196 L 4,197 L 5,198 L 5,199 L 8,202 L 9,202 L 14,207 L 14,208 L 15,209 L 16,209 L 18,211 L 19,211 L 20,212 L 22,212 L 23,213 L 24,213 L 25,214 L 26,214 L 27,215 L 28,215 L 30,217 L 31,217 L 32,218 L 33,218 L 34,219 L 36,219 L 37,220 L 39,220 L 40,221 L 43,221 L 44,222 L 46,222 L 47,223 L 49,223 L 50,224 L 52,224 L 53,225 L 54,225 L 55,226 L 56,226 L 57,227 L 59,227 L 60,228 L 62,228 L 63,229 L 67,229 L 68,230 L 72,230 L 73,231 L 77,231 L 78,232 L 82,232 L 83,233 L 85,233 L 86,234 L 90,234 L 91,235 L 97,235 L 98,236 L 112,236 L 113,237 L 144,237 L 145,236 L 164,236 L 165,235 L 174,235 L 175,234 L 179,234 L 180,233 L 184,233 L 185,232 L 190,232 L 191,231 L 198,231 L 199,230 L 204,230 L 205,229 L 211,229 L 212,228 L 214,228 L 215,227 L 218,227 L 219,226 L 220,226 L 221,225 L 223,225 L 224,224 L 226,224 L 227,223 L 231,223 L 232,222 L 235,222 L 236,221 L 239,221 L 240,220 L 242,220 L 243,219 L 245,219 L 246,218 L 247,218 L 248,217 L 249,217 L 250,216 L 251,216 L 252,215 L 254,215 L 255,214 L 256,214 L 257,213 L 259,213 L 260,212 L 262,212 L 263,211 L 265,211 L 266,210 L 268,210 L 269,209 L 270,209 L 271,208 L 272,208 L 273,207 L 275,207 L 276,206 L 278,206 L 279,205 L 281,205 L 282,204 L 283,204 L 284,203 L 286,203 L 287,202 L 288,202 L 289,201 L 290,201 L 291,200 L 292,200 L 293,199 L 294,199 L 295,198 L 297,198 L 298,197 L 301,197 L 302,196 L 305,196 L 306,195 L 309,195 L 310,194 L 312,194 L 313,193 L 315,193 L 316,192 L 317,192 L 318,191 L 319,191 L 320,190 L 322,190 L 323,189 L 325,189 L 326,188 L 328,188 L 329,187 L 332,187 L 333,186 L 335,186 L 336,185 L 337,185 L 338,184 L 339,184 L 341,182 L 342,182 L 343,181 L 344,181 L 345,180 L 347,180 L 348,179 L 350,179 L 351,178 L 354,178 L 355,177 L 357,177 L 358,176 L 360,176 L 361,175 L 362,175 L 365,172 L 366,172 L 369,169 L 370,169 L 372,167 L 373,167 L 377,163 L 377,162 L 378,161 L 378,160 L 379,159 L 379,156 L 380,155 L 380,126 L 379,125 L 379,120 L 378,119 L 378,117 L 377,116 L 377,115 L 376,114 L 376,113 L 374,111 L 374,110 L 371,107 L 371,106 L 370,105 L 370,104 L 369,103 L 369,101 L 368,100 L 368,97 L 367,96 L 367,90 L 366,89 L 366,85 L 365,84 L 365,81 L 364,80 L 364,79 L 363,78 L 363,76 L 362,75 L 362,74 L 359,71 L 359,70 L 357,68 L 357,67 L 356,66 L 356,65 L 355,64 L 355,61 L 354,60 L 354,54 L 353,53 L 353,47 L 352,46 L 352,42 L 351,41 L 351,38 L 350,37 L 350,36 L 348,34 L 348,33 L 344,29 L 344,28 L 342,26 L 342,25 L 341,24 L 341,22 L 340,21 L 340,20 L 339,19 L 339,18 L 333,12 L 332,12 L 331,11 L 330,11 L 329,10 L 327,10 L 326,9 L 325,9 L 324,8 L 322,8 L 321,7 L 302,7 L 301,8 L 296,8 L 295,9 L 291,9 L 290,10 L 288,10 L 287,11 L 286,11 L 285,12 L 284,12 L 283,13 L 282,13 L 281,14 L 280,14 L 279,15 L 266,15 L 265,14 L 264,14 L 263,13 L 262,13 L 261,12 L 260,12 L 259,11 L 257,11 L 256,10 L 255,10 L 254,9 L 251,9 L 250,8 L 246,8 L 245,7 L 240,7 L 239,6 Z" fill="black" stroke="none" /></svg>