<?xml version="1.0" encoding="utf-8" ?>
<svg baseProfile="tiny" height="237" version="1.2" width="331" xmlns="http://www.w3.org/2000/svg" xmlns:ev="http://www.w3.org/2001/xml-events" xmlns:xlink="http://www.w3.org/1999/xlink"><defs /><path d="M 230,1 L 229,2 L 226,2 L 225,3 L 222,3 L 221,4 L 220,4 L 219,5 L 218,5 L 217,6 L 216,6 L 215,7 L 214,7 L 213,8 L 212,8 L 211,9 L 210,9 L 209,10 L 208,10 L 207,11 L 206,11 L 195,22 L 194,22 L 191,25 L 190,25 L 187,28 L 186,28 L 183,31 L 182,31 L 179,34 L 178,34 L 172,40 L 171,40 L 170,41 L 169,41 L 168,42 L 167,42 L 165,44 L 164,44 L 161,47 L 160,47 L 159,48 L 158,48 L 157,49 L 156,49 L 155,50 L 154,50 L 152,52 L 151,52 L 150,53 L 149,53 L 148,54 L 147,54 L 144,57 L 143,57 L 141,59 L 140,59 L 139,60 L 138,60 L 137,61 L 136,61 L 134,63 L 133,63 L 131,65 L 130,65 L 129,66 L 128,66 L 127,67 L 126,67 L 125,68 L 123,68 L 122,69 L 120,69 L 118,71 L 117,71 L 114,74 L 113,74 L 112,75 L 109,75 L 108,76 L 105,76 L 104,77 L 101,77 L 100,78 L 98,78 L 97,79 L 95,79 L 93,81 L 92,81 L 91,82 L 90,82 L 89,83 L 85,83 L 84,84 L 79,84 L 78,85 L 73,85 L 72,86 L 69,86 L 68,87 L 66,87 L 65,88 L 64,88 L 63,89 L 62,89 L 60,91 L 58,91 L 57,92 L 55,92 L 54,93 L 51,93 L 50,94 L 48,94 L 47,95 L 45,95 L 44,96 L 43,96 L 41,98 L 40,98 L 38,100 L 37,100 L 35,102 L 34,102 L 33,103 L 32,103 L 31,104 L 30,104 L 25,109 L 25,110 L 23,112 L 23,113 L 18,118 L 17,118 L 13,122 L 13,123 L 12,124 L 12,126 L 11,127 L 11,129 L 10,130 L 10,131 L 7,134 L 7,135 L 4,138 L 4,144 L 5,145 L 5,148 L 6,149 L 7,149 L 8,150 L 9,150 L 10,151 L 11,151 L 12,152 L 14,152 L 15,153 L 17,153 L 18,154 L 32,154 L 33,155 L 35,155 L 36,156 L 38,156 L 39,157 L 42,157 L 43,158 L 45,158 L 46,159 L 49,159 L 50,160 L 53,160 L 54,161 L 56,161 L 58,163 L 59,163 L 61,165 L 61,166 L 63,168 L 64,168 L 70,174 L 70,176 L 71,177 L 71,178 L 72,179 L 72,181 L 73,182 L 73,183 L 74,184 L 74,186 L 75,187 L 75,188 L 76,189 L 76,190 L 79,193 L 79,194 L 81,196 L 81,197 L 82,198 L 82,201 L 83,202 L 83,205 L 84,206 L 84,208 L 85,209 L 85,210 L 86,211 L 86,212 L 88,214 L 88,215 L 89,216 L 90,216 L 93,219 L 93,220 L 95,222 L 95,223 L 96,224 L 96,225 L 97,226 L 97,227 L 99,229 L 99,230 L 101,232 L 102,232 L 103,233 L 105,233 L 106,234 L 110,234 L 111,235 L 170,235 L 171,234 L 183,234 L 184,233 L 187,233 L 188,232 L 190,232 L 191,231 L 193,231 L 194,230 L 196,230 L 197,229 L 198,229 L 199,228 L 201,228 L 202,227 L 203,227 L 204,226 L 206,226 L 208,224 L 209,224 L 214,219 L 215,219 L 218,216 L 219,216 L 221,214 L 221,213 L 224,210 L 224,209 L 226,207 L 226,206 L 230,202 L 231,202 L 233,200 L 233,199 L 235,197 L 235,196 L 236,195 L 236,194 L 237,193 L 237,192 L 238,191 L 238,190 L 243,185 L 244,185 L 246,183 L 246,182 L 251,177 L 252,177 L 254,175 L 257,175 L 258,174 L 262,174 L 263,173 L 265,173 L 266,172 L 271,172 L 272,171 L 283,171 L 284,172 L 291,172 L 292,171 L 295,171 L 296,170 L 299,170 L 300,169 L 302,169 L 303,168 L 305,168 L 306,167 L 307,167 L 308,166 L 310,166 L 311,165 L 312,165 L 319,158 L 319,157 L 320,156 L 320,155 L 322,153 L 322,152 L 324,150 L 324,149 L 325,148 L 325,147 L 326,146 L 326,143 L 327,142 L 327,121 L 326,120 L 326,117 L 325,116 L 325,115 L 324,114 L 324,110 L 323,109 L 323,104 L 322,103 L 322,87 L 323,86 L 323,81 L 324,80 L 324,70 L 325,69 L 325,66 L 326,65 L 326,50 L 327,49 L 327,44 L 326,43 L 326,37 L 325,36 L 325,34 L 324,33 L 324,31 L 321,28 L 320,28 L 319,27 L 318,27 L 317,26 L 316,26 L 315,25 L 313,25 L 312,24 L 306,24 L 305,23 L 301,23 L 299,21 L 298,21 L 297,20 L 296,20 L 294,18 L 293,18 L 292,17 L 291,17 L 290,16 L 289,16 L 288,15 L 287,15 L 283,11 L 282,11 L 281,10 L 280,10 L 279,9 L 278,9 L 277,8 L 275,8 L 274,7 L 273,7 L 272,6 L 271,6 L 270,5 L 269,5 L 268,4 L 266,4 L 265,3 L 262,3 L 261,2 L 257,2 L 256,1 Z" fill="black" stroke="none" /></svg>