<?xml version="1.0" encoding="utf-8" ?>
<svg baseProfile="tiny" height="228" version="1.2" width="386" xmlns="http://www.w3.org/2000/svg" xmlns:ev="http://www.w3.org/2001/xml-events" xmlns:xlink="http://www.w3.org/1999/xlink"><defs /><path d="M 205,1 L 204,2 L 193,2 L 192,3 L 187,3 L 186,4 L 184,4 L 183,5 L 182,5 L 181,6 L 180,6 L 179,7 L 178,7 L 177,8 L 175,8 L 174,9 L 172,9 L 171,10 L 170,10 L 167,13 L 167,14 L 164,17 L 164,18 L 160,22 L 159,22 L 157,24 L 156,24 L 152,28 L 152,29 L 150,31 L 149,31 L 147,33 L 146,33 L 145,34 L 144,34 L 143,35 L 142,35 L 139,38 L 138,38 L 136,40 L 135,40 L 134,41 L 133,41 L 132,42 L 131,42 L 129,44 L 128,44 L 127,45 L 127,46 L 126,47 L 126,48 L 124,50 L 124,51 L 123,52 L 123,53 L 119,57 L 118,57 L 117,58 L 116,58 L 113,61 L 113,62 L 112,63 L 112,64 L 111,65 L 111,67 L 110,68 L 110,69 L 105,74 L 104,74 L 103,75 L 102,75 L 98,79 L 98,80 L 93,85 L 92,85 L 90,87 L 89,87 L 88,88 L 86,88 L 85,89 L 83,89 L 82,90 L 80,90 L 79,91 L 77,91 L 76,92 L 74,92 L 73,93 L 72,93 L 70,95 L 69,95 L 68,96 L 66,96 L 65,97 L 62,97 L 61,98 L 57,98 L 56,99 L 52,99 L 51,100 L 49,100 L 48,101 L 46,101 L 44,103 L 43,103 L 42,104 L 40,104 L 39,105 L 38,105 L 37,106 L 34,106 L 33,107 L 32,107 L 31,108 L 30,108 L 24,114 L 23,114 L 22,115 L 21,115 L 17,119 L 17,120 L 16,121 L 16,122 L 15,123 L 15,124 L 14,125 L 14,126 L 13,127 L 13,129 L 11,131 L 11,132 L 9,134 L 9,135 L 7,137 L 7,138 L 5,140 L 5,142 L 4,143 L 4,147 L 3,148 L 3,157 L 4,158 L 4,160 L 5,161 L 5,162 L 6,163 L 6,164 L 14,172 L 14,173 L 18,177 L 19,177 L 21,179 L 22,179 L 23,180 L 24,180 L 26,182 L 27,182 L 29,184 L 30,184 L 31,185 L 32,185 L 33,186 L 34,186 L 35,187 L 37,187 L 38,188 L 39,188 L 41,190 L 42,190 L 44,192 L 45,192 L 46,193 L 47,193 L 48,194 L 50,194 L 51,195 L 53,195 L 54,196 L 56,196 L 57,197 L 58,197 L 60,199 L 61,199 L 62,200 L 64,200 L 65,201 L 67,201 L 68,202 L 70,202 L 71,203 L 73,203 L 74,204 L 76,204 L 77,205 L 79,205 L 80,206 L 81,206 L 82,207 L 83,207 L 84,208 L 86,208 L 87,209 L 89,209 L 90,210 L 94,210 L 95,211 L 98,211 L 99,212 L 102,212 L 103,213 L 106,213 L 107,214 L 109,214 L 110,215 L 111,215 L 112,216 L 114,216 L 115,217 L 118,217 L 119,218 L 123,218 L 124,219 L 129,219 L 130,220 L 134,220 L 135,221 L 139,221 L 140,222 L 143,222 L 144,223 L 147,223 L 148,224 L 153,224 L 154,225 L 163,225 L 164,226 L 205,226 L 206,225 L 215,225 L 216,224 L 220,224 L 221,223 L 224,223 L 225,222 L 228,222 L 229,221 L 234,221 L 235,220 L 240,220 L 241,219 L 245,219 L 246,218 L 249,218 L 250,217 L 252,217 L 253,216 L 255,216 L 256,215 L 257,215 L 258,214 L 259,214 L 260,213 L 262,213 L 263,212 L 266,212 L 267,211 L 269,211 L 270,210 L 272,210 L 273,209 L 275,209 L 276,208 L 277,208 L 278,207 L 279,207 L 280,206 L 281,206 L 282,205 L 284,205 L 285,204 L 287,204 L 288,203 L 290,203 L 291,202 L 293,202 L 294,201 L 296,201 L 297,200 L 300,200 L 301,199 L 302,199 L 303,198 L 305,198 L 306,197 L 308,197 L 309,196 L 311,196 L 312,195 L 314,195 L 315,194 L 317,194 L 318,193 L 321,193 L 322,192 L 324,192 L 325,191 L 326,191 L 327,190 L 329,190 L 330,189 L 332,189 L 333,188 L 336,188 L 337,187 L 340,187 L 341,186 L 343,186 L 344,185 L 346,185 L 347,184 L 349,184 L 350,183 L 352,183 L 354,181 L 355,181 L 356,180 L 357,180 L 358,179 L 360,179 L 361,178 L 362,178 L 363,177 L 365,177 L 366,176 L 367,176 L 368,175 L 369,175 L 372,172 L 373,172 L 375,170 L 376,170 L 378,168 L 379,168 L 381,166 L 381,165 L 382,164 L 382,162 L 383,161 L 383,159 L 384,158 L 384,138 L 383,137 L 383,134 L 382,133 L 382,132 L 381,131 L 381,130 L 376,125 L 376,124 L 375,123 L 375,122 L 374,121 L 374,120 L 373,119 L 373,116 L 372,115 L 372,112 L 371,111 L 371,107 L 370,106 L 370,102 L 369,101 L 369,98 L 368,97 L 368,95 L 367,94 L 367,92 L 366,91 L 366,88 L 365,87 L 365,85 L 364,84 L 364,83 L 363,82 L 363,81 L 362,80 L 362,78 L 361,77 L 361,71 L 360,70 L 360,63 L 359,62 L 359,54 L 358,53 L 358,41 L 357,40 L 357,33 L 356,32 L 356,28 L 355,27 L 355,26 L 354,25 L 354,24 L 353,23 L 353,22 L 349,18 L 348,18 L 343,13 L 343,12 L 342,12 L 341,11 L 340,11 L 339,10 L 323,10 L 322,11 L 319,11 L 318,12 L 315,12 L 314,13 L 313,13 L 312,14 L 310,14 L 309,15 L 308,15 L 307,16 L 305,16 L 304,17 L 302,17 L 301,18 L 299,18 L 298,19 L 294,19 L 293,18 L 290,18 L 289,17 L 285,17 L 284,16 L 281,16 L 280,15 L 278,15 L 277,14 L 275,14 L 274,13 L 273,13 L 272,12 L 270,12 L 269,11 L 266,11 L 265,10 L 262,10 L 261,9 L 257,9 L 256,8 L 251,8 L 250,7 L 245,7 L 244,6 L 241,6 L 240,5 L 238,5 L 237,4 L 234,4 L 233,3 L 230,3 L 229,2 L 218,2 L 217,1 Z" fill="black" stroke="none" /></svg>